<?xml version="1.0" encoding="iso-8859-1"?>
<!-- Uploaded to: SVG Repo, www.svgrepo.com, Generator: SVG Repo Mixer Tools -->
<!DOCTYPE svg PUBLIC "-//W3C//DTD SVG 1.1//EN" "http://www.w3.org/Graphics/SVG/1.1/DTD/svg11.dtd">
<svg fill="#000000" height="800px" width="800px" version="1.1" id="Capa_1" xmlns="http://www.w3.org/2000/svg" xmlns:xlink="http://www.w3.org/1999/xlink" 
	 viewBox="0 0 437.744 437.744" xml:space="preserve">
<path d="M405.852,100.879h-3.358c-3.859-7.12-11.399-11.967-20.051-11.967h-61.567V78.594c0-13.245-10.775-24.021-24.02-24.021
	h-155.96c-13.25,0-24.03,10.775-24.03,24.021v10.318H55.301c-8.652,0-16.192,4.847-20.051,11.967h-3.358
	C14.307,100.879,0,115.186,0,132.771v218.507c0,17.586,14.307,31.893,31.892,31.893h373.96c17.585,0,31.892-14.307,31.892-31.893
	V132.771C437.744,115.186,423.437,100.879,405.852,100.879z M130.865,78.594c0-5.525,4.5-10.021,10.03-10.021h155.96
	c5.525,0,10.02,4.495,10.02,10.021v10.318h-176.01V78.594z M46.511,111.702c0-4.847,3.943-8.79,8.79-8.79h327.141
	c4.847,0,8.79,3.943,8.79,8.79v166.245c0,23.104-18.797,41.901-41.901,41.901h-82.668l4.417-25.396H166.658l4.417,25.396H88.413
	c-23.104,0-41.901-18.797-41.901-41.901V111.702z M254.435,308.453l-5.358,30.808h-60.415l-5.358-30.808H254.435z M423.744,351.278
	c0,9.866-8.026,17.893-17.892,17.893H31.892c-9.865,0-17.892-8.026-17.892-17.893V132.771c0-9.865,8.026-17.892,17.892-17.892h0.62
	v163.068c0,30.824,25.077,55.901,55.901,55.901h85.097l3.376,19.412h83.966l3.376-19.412h85.103
	c30.824,0,55.901-25.077,55.901-55.901V114.879h0.62c9.865,0,17.892,8.026,17.892,17.892V351.278z"/>
</svg>